<?xml version="1.0" encoding="utf-8" standalone="no"?>
<!DOCTYPE svg PUBLIC "-//W3C//DTD SVG 1.1//EN"
  "http://www.w3.org/Graphics/SVG/1.1/DTD/svg11.dtd">
<svg xmlns:xlink="http://www.w3.org/1999/xlink" width="325.19952pt" height="418.541998pt" viewBox="0 0 325.19952 418.541998" xmlns="http://www.w3.org/2000/svg" version="1.1">
 <metadata>
  <rdf:RDF xmlns:dc="http://purl.org/dc/elements/1.1/" xmlns:cc="http://creativecommons.org/ns#" xmlns:rdf="http://www.w3.org/1999/02/22-rdf-syntax-ns#">
   <cc:Work>
    <dc:type rdf:resource="http://purl.org/dc/dcmitype/StillImage"/>
    <dc:date>2026-09-26T13:26:44.807983</dc:date>
    <dc:format>image/svg+xml</dc:format>
    <dc:creator>
     <cc:Agent>
      <dc:title>Matplotlib v3.11.2, https://matplotlib.org/</dc:title>
     </cc:Agent>
    </dc:creator>
   </cc:Work>
  </rdf:RDF>
 </metadata>
 <defs>
  <style type="text/css">*{stroke-linejoin: round; stroke-linecap: butt}</style>
 </defs>
 <g id="figure_1">
  <g id="patch_1">
   <path d="M 0 418.541998 
L 325.19952 418.541998 
L 325.19952 0 
L 0 0 
z
" style="fill: #ffffff"/>
  </g>
  <g id="axes_1">
   <g id="patch_2">
    <path d="M 72.939375 375.741138 
L 314.39952 375.741138 
L 314.39952 36.345599 
L 72.939375 36.345599 
z
" style="fill: #ffffff"/>
   </g>
   <g id="matplotlib.axis_1">
    <g id="xtick_1">
     <g id="line2d_1">
      <path d="M 72.939375 375.741138 
L 72.939375 36.345599 
" clip-path="url(#p7a7a1367b3)" style="fill: none; stroke: #b0b0b0; stroke-opacity: 0.18; stroke-width: 0.8; stroke-linecap: square"/>
     </g>
     <g id="line2d_2"/>
     <g id="text_1">
      <text style="font-size: 11px; font-family: 'DejaVu Sans'; text-anchor: middle; fill: #566571" x="72.939375" y="390.09856" transform="rotate(-0 72.939375 390.09856)">0</text>
     </g>
    </g>
    <g id="xtick_2">
     <g id="line2d_3">
      <path d="M 134.852233 375.741138 
L 134.852233 36.345599 
" clip-path="url(#p7a7a1367b3)" style="fill: none; stroke: #b0b0b0; stroke-opacity: 0.18; stroke-width: 0.8; stroke-linecap: square"/>
     </g>
     <g id="line2d_4"/>
     <g id="text_2">
      <text style="font-size: 11px; font-family: 'DejaVu Sans'; text-anchor: middle; fill: #566571" x="134.852233" y="390.09856" transform="rotate(-0 134.852233 390.09856)">100</text>
     </g>
    </g>
    <g id="xtick_3">
     <g id="line2d_5">
      <path d="M 196.76509 375.741138 
L 196.76509 36.345599 
" clip-path="url(#p7a7a1367b3)" style="fill: none; stroke: #b0b0b0; stroke-opacity: 0.18; stroke-width: 0.8; stroke-linecap: square"/>
     </g>
     <g id="line2d_6"/>
     <g id="text_3">
      <text style="font-size: 11px; font-family: 'DejaVu Sans'; text-anchor: middle; fill: #566571" x="196.76509" y="390.09856" transform="rotate(-0 196.76509 390.09856)">200</text>
     </g>
    </g>
    <g id="xtick_4">
     <g id="line2d_7">
      <path d="M 258.677948 375.741138 
L 258.677948 36.345599 
" clip-path="url(#p7a7a1367b3)" style="fill: none; stroke: #b0b0b0; stroke-opacity: 0.18; stroke-width: 0.8; stroke-linecap: square"/>
     </g>
     <g id="line2d_8"/>
     <g id="text_4">
      <text style="font-size: 11px; font-family: 'DejaVu Sans'; text-anchor: middle; fill: #566571" x="258.677948" y="390.09856" transform="rotate(-0 258.677948 390.09856)">300</text>
     </g>
    </g>
    <g id="text_5">
     <text style="font-size: 11px; font-family: 'DejaVu Sans'; text-anchor: middle; fill: #566571" x="193.669447" y="405.099419" transform="rotate(-0 193.669447 405.099419)">Recorded deaths / year</text>
    </g>
   </g>
   <g id="matplotlib.axis_2">
    <g id="ytick_1">
     <g id="line2d_9"/>
     <g id="text_6">
      <text style="font-size: 12px; font-family: 'DejaVu Sans'; text-anchor: end; fill: #566571" x="66.939375" y="67.758722" transform="rotate(-0 66.939375 67.758722)">1940s</text>
     </g>
    </g>
    <g id="ytick_2">
     <g id="line2d_10"/>
     <g id="text_7">
      <text style="font-size: 12px; font-family: 'DejaVu Sans'; text-anchor: end; fill: #566571" x="66.939375" y="103.469532" transform="rotate(-0 66.939375 103.469532)">1950s</text>
     </g>
    </g>
    <g id="ytick_3">
     <g id="line2d_11"/>
     <g id="text_8">
      <text style="font-size: 12px; font-family: 'DejaVu Sans'; text-anchor: end; fill: #566571" x="66.939375" y="139.180342" transform="rotate(-0 66.939375 139.180342)">1960s</text>
     </g>
    </g>
    <g id="ytick_4">
     <g id="line2d_12"/>
     <g id="text_9">
      <text style="font-size: 12px; font-family: 'DejaVu Sans'; text-anchor: end; fill: #566571" x="66.939375" y="174.891152" transform="rotate(-0 66.939375 174.891152)">1970s</text>
     </g>
    </g>
    <g id="ytick_5">
     <g id="line2d_13"/>
     <g id="text_10">
      <text style="font-size: 12px; font-family: 'DejaVu Sans'; text-anchor: end; fill: #566571" x="66.939375" y="210.601962" transform="rotate(-0 66.939375 210.601962)">1980s</text>
     </g>
    </g>
    <g id="ytick_6">
     <g id="line2d_14"/>
     <g id="text_11">
      <text style="font-size: 12px; font-family: 'DejaVu Sans'; text-anchor: end; fill: #566571" x="66.939375" y="246.312772" transform="rotate(-0 66.939375 246.312772)">1990s</text>
     </g>
    </g>
    <g id="ytick_7">
     <g id="line2d_15"/>
     <g id="text_12">
      <text style="font-size: 12px; font-family: 'DejaVu Sans'; text-anchor: end; fill: #566571" x="66.939375" y="282.023582" transform="rotate(-0 66.939375 282.023582)">2000s</text>
     </g>
    </g>
    <g id="ytick_8">
     <g id="line2d_16"/>
     <g id="text_13">
      <text style="font-size: 12px; font-family: 'DejaVu Sans'; text-anchor: end; fill: #566571" x="66.939375" y="317.734393" transform="rotate(-0 66.939375 317.734393)">2010s</text>
     </g>
    </g>
    <g id="ytick_9">
     <g id="line2d_17"/>
     <g id="text_14">
      <text style="font-size: 12px; font-family: 'DejaVu Sans'; text-anchor: end; fill: #566571" x="66.939375" y="353.445203" transform="rotate(-0 66.939375 353.445203)">2020-24*</text>
     </g>
    </g>
   </g>
   <g id="patch_3">
    <path d="M 72.939375 51.772669 
L 183.639565 51.772669 
L 183.639565 74.627587 
L 72.939375 74.627587 
z
" clip-path="url(#p7a7a1367b3)" style="fill: #ae884c"/>
   </g>
   <g id="patch_4">
    <path d="M 72.939375 87.483479 
L 160.174591 87.483479 
L 160.174591 110.338397 
L 72.939375 110.338397 
z
" clip-path="url(#p7a7a1367b3)" style="fill: #ae884c"/>
   </g>
   <g id="patch_5">
    <path d="M 72.939375 123.194289 
L 130.827897 123.194289 
L 130.827897 146.049207 
L 72.939375 146.049207 
z
" clip-path="url(#p7a7a1367b3)" style="fill: #ae884c"/>
   </g>
   <g id="patch_6">
    <path d="M 72.939375 158.905099 
L 133.985453 158.905099 
L 133.985453 181.760017 
L 72.939375 181.760017 
z
" clip-path="url(#p7a7a1367b3)" style="fill: #ae884c"/>
   </g>
   <g id="patch_7">
    <path d="M 72.939375 194.615909 
L 105.195974 194.615909 
L 105.195974 217.470828 
L 72.939375 217.470828 
z
" clip-path="url(#p7a7a1367b3)" style="fill: #ae884c"/>
   </g>
   <g id="patch_8">
    <path d="M 72.939375 230.326719 
L 108.78692 230.326719 
L 108.78692 253.181638 
L 72.939375 253.181638 
z
" clip-path="url(#p7a7a1367b3)" style="fill: #ae884c"/>
   </g>
   <g id="patch_9">
    <path d="M 72.939375 266.037529 
L 107.48675 266.037529 
L 107.48675 288.892448 
L 72.939375 288.892448 
z
" clip-path="url(#p7a7a1367b3)" style="fill: #ae884c"/>
   </g>
   <g id="patch_10">
    <path d="M 72.939375 301.74834 
L 129.280075 301.74834 
L 129.280075 324.603258 
L 72.939375 324.603258 
z
" clip-path="url(#p7a7a1367b3)" style="fill: #ae884c"/>
   </g>
   <g id="patch_11">
    <path d="M 72.939375 337.45915 
L 115.163944 337.45915 
L 115.163944 360.314068 
L 72.939375 360.314068 
z
" clip-path="url(#p7a7a1367b3)" style="fill: url(#h3c5fdc9319); stroke: #ffffff; stroke-linejoin: miter"/>
   </g>
   <g id="patch_12">
    <path d="M 183.639565 51.772669 
L 221.963623 51.772669 
L 221.963623 74.627587 
L 183.639565 74.627587 
z
" clip-path="url(#p7a7a1367b3)" style="fill: #277c80"/>
   </g>
   <g id="patch_13">
    <path d="M 160.174591 87.483479 
L 209.147662 87.483479 
L 209.147662 110.338397 
L 160.174591 110.338397 
z
" clip-path="url(#p7a7a1367b3)" style="fill: #277c80"/>
   </g>
   <g id="patch_14">
    <path d="M 130.827897 123.194289 
L 211.128873 123.194289 
L 211.128873 146.049207 
L 130.827897 146.049207 
z
" clip-path="url(#p7a7a1367b3)" style="fill: #277c80"/>
   </g>
   <g id="patch_15">
    <path d="M 133.985453 158.905099 
L 246.604941 158.905099 
L 246.604941 181.760017 
L 133.985453 181.760017 
z
" clip-path="url(#p7a7a1367b3)" style="fill: #277c80"/>
   </g>
   <g id="patch_16">
    <path d="M 105.195974 194.615909 
L 173.114379 194.615909 
L 173.114379 217.470828 
L 105.195974 217.470828 
z
" clip-path="url(#p7a7a1367b3)" style="fill: #277c80"/>
   </g>
   <g id="patch_17">
    <path d="M 108.78692 230.326719 
L 170.204474 230.326719 
L 170.204474 253.181638 
L 108.78692 253.181638 
z
" clip-path="url(#p7a7a1367b3)" style="fill: #277c80"/>
   </g>
   <g id="patch_18">
    <path d="M 107.48675 266.037529 
L 147.544369 266.037529 
L 147.544369 288.892448 
L 107.48675 288.892448 
z
" clip-path="url(#p7a7a1367b3)" style="fill: #277c80"/>
   </g>
   <g id="patch_19">
    <path d="M 129.280075 301.74834 
L 190.449979 301.74834 
L 190.449979 324.603258 
L 129.280075 324.603258 
z
" clip-path="url(#p7a7a1367b3)" style="fill: #277c80"/>
   </g>
   <g id="patch_20">
    <path d="M 115.163944 337.45915 
L 178.438885 337.45915 
L 178.438885 360.314068 
L 115.163944 360.314068 
z
" clip-path="url(#p7a7a1367b3)" style="fill: url(#h2633590f10); stroke: #ffffff; stroke-linejoin: miter"/>
   </g>
   <g id="patch_21">
    <path d="M 221.963623 51.772669 
L 235.336801 51.772669 
L 235.336801 74.627587 
L 221.963623 74.627587 
z
" clip-path="url(#p7a7a1367b3)" style="fill: #c85e3c"/>
   </g>
   <g id="patch_22">
    <path d="M 209.147662 87.483479 
L 263.445238 87.483479 
L 263.445238 110.338397 
L 209.147662 110.338397 
z
" clip-path="url(#p7a7a1367b3)" style="fill: #c85e3c"/>
   </g>
   <g id="patch_23">
    <path d="M 211.128873 123.194289 
L 247.471721 123.194289 
L 247.471721 146.049207 
L 211.128873 146.049207 
z
" clip-path="url(#p7a7a1367b3)" style="fill: #c85e3c"/>
   </g>
   <g id="patch_24">
    <path d="M 246.604941 158.905099 
L 260.040031 158.905099 
L 260.040031 181.760017 
L 246.604941 181.760017 
z
" clip-path="url(#p7a7a1367b3)" style="fill: #c85e3c"/>
   </g>
   <g id="patch_25">
    <path d="M 173.114379 194.615909 
L 180.420096 194.615909 
L 180.420096 217.470828 
L 173.114379 217.470828 
z
" clip-path="url(#p7a7a1367b3)" style="fill: #c85e3c"/>
   </g>
   <g id="patch_26">
    <path d="M 170.204474 230.326719 
L 178.872275 230.326719 
L 178.872275 253.181638 
L 170.204474 253.181638 
z
" clip-path="url(#p7a7a1367b3)" style="fill: #c85e3c"/>
   </g>
   <g id="patch_27">
    <path d="M 147.544369 266.037529 
L 218.991806 266.037529 
L 218.991806 288.892448 
L 147.544369 288.892448 
z
" clip-path="url(#p7a7a1367b3)" style="fill: #c85e3c"/>
   </g>
   <g id="patch_28">
    <path d="M 190.449979 301.74834 
L 193.73136 301.74834 
L 193.73136 324.603258 
L 190.449979 324.603258 
z
" clip-path="url(#p7a7a1367b3)" style="fill: #c85e3c"/>
   </g>
   <g id="patch_29">
    <path d="M 178.438885 337.45915 
L 206.794973 337.45915 
L 206.794973 360.314068 
L 178.438885 360.314068 
z
" clip-path="url(#p7a7a1367b3)" style="fill: url(#h1bca09c41b); stroke: #ffffff; stroke-linejoin: miter"/>
   </g>
   <g id="text_15">
    <text style="font-weight: 700; font-size: 12px; font-family: 'DejaVu Sans'; text-anchor: start; fill: #173449" x="239.051572" y="66.317315" transform="rotate(-0 239.051572 66.317315)">262</text>
   </g>
   <g id="text_16">
    <text style="font-weight: 700; font-size: 12px; font-family: 'DejaVu Sans'; text-anchor: start; fill: #173449" x="267.16001" y="102.028125" transform="rotate(-0 267.16001 102.028125)">308</text>
   </g>
   <g id="text_17">
    <text style="font-weight: 700; font-size: 12px; font-family: 'DejaVu Sans'; text-anchor: start; fill: #173449" x="251.186492" y="137.738936" transform="rotate(-0 251.186492 137.738936)">282</text>
   </g>
   <g id="text_18">
    <text style="font-weight: 700; font-size: 12px; font-family: 'DejaVu Sans'; text-anchor: start; fill: #173449" x="263.754802" y="173.449746" transform="rotate(-0 263.754802 173.449746)">302</text>
   </g>
   <g id="text_19">
    <text style="font-weight: 700; font-size: 12px; font-family: 'DejaVu Sans'; text-anchor: start; fill: #173449" x="184.134867" y="209.160556" transform="rotate(-0 184.134867 209.160556)">174</text>
   </g>
   <g id="text_20">
    <text style="font-weight: 700; font-size: 12px; font-family: 'DejaVu Sans'; text-anchor: start; fill: #173449" x="182.587046" y="244.871366" transform="rotate(-0 182.587046 244.871366)">171</text>
   </g>
   <g id="text_21">
    <text style="font-weight: 700; font-size: 12px; font-family: 'DejaVu Sans'; text-anchor: start; fill: #173449" x="222.706578" y="280.582176" transform="rotate(-0 222.706578 280.582176)">236</text>
   </g>
   <g id="text_22">
    <text style="font-weight: 700; font-size: 12px; font-family: 'DejaVu Sans'; text-anchor: start; fill: #173449" x="197.446132" y="316.292986" transform="rotate(-0 197.446132 316.292986)">195</text>
   </g>
   <g id="text_23">
    <text style="font-weight: 700; font-size: 12px; font-family: 'DejaVu Sans'; text-anchor: start; fill: #173449" x="210.509745" y="352.003796" transform="rotate(-0 210.509745 352.003796)">216</text>
   </g>
   <g id="legend_1">
    <g id="patch_30">
     <path d="M 77.867183 22.398437 
L 87.867183 22.398437 
L 87.867183 15.398437 
L 77.867183 15.398437 
z
" style="fill: #ae884c"/>
    </g>
    <g id="text_24">
     <text style="font-size: 10px; font-family: 'DejaVu Sans'; text-anchor: start; fill: #173449" x="95.867183" y="22.398437" transform="rotate(-0 95.867183 22.398437)">Tornado</text>
    </g>
    <g id="patch_31">
     <path d="M 142.264058 22.398437 
L 152.264058 22.398437 
L 152.264058 15.398437 
L 142.264058 15.398437 
z
" style="fill: #277c80"/>
    </g>
    <g id="text_25">
     <text style="font-size: 10px; font-family: 'DejaVu Sans'; text-anchor: start; fill: #173449" x="160.264058" y="22.398437" transform="rotate(-0 160.264058 22.398437)">Flood</text>
    </g>
    <g id="patch_32">
     <path d="M 194.379683 22.398437 
L 204.379683 22.398437 
L 204.379683 15.398437 
L 194.379683 15.398437 
z
" style="fill: #c85e3c"/>
    </g>
    <g id="text_26">
     <text style="font-size: 10px; font-family: 'DejaVu Sans'; text-anchor: start; fill: #173449" x="212.379683" y="22.398437" transform="rotate(-0 212.379683 22.398437)">Hurricane</text>
    </g>
   </g>
  </g>
 </g>
 <defs>
  <clipPath id="p7a7a1367b3">
   <rect x="72.939375" y="36.345599" width="241.460145" height="339.39554"/>
  </clipPath>
 </defs>
 <defs>
  <pattern id="h3c5fdc9319" patternUnits="userSpaceOnUse" x="0" y="0" width="72" height="72">
   <rect x="0" y="0" width="73" height="73" fill="#ae884c"/>
   <path d="M -36 36 
L 36 -36 
M -32 40 
L 40 -32 
M -28 44 
L 44 -28 
M -24 48 
L 48 -24 
M -20 52 
L 52 -20 
M -16 56 
L 56 -16 
M -12 60 
L 60 -12 
M -8 64 
L 64 -8 
M -4 68 
L 68 -4 
M 0 72 
L 72 0 
M 4 76 
L 76 4 
M 8 80 
L 80 8 
M 12 84 
L 84 12 
M 16 88 
L 88 16 
M 20 92 
L 92 20 
M 24 96 
L 96 24 
M 28 100 
L 100 28 
M 32 104 
L 104 32 
M 36 108 
L 108 36 
" style="fill: #ffffff; stroke: #ffffff; stroke-width: 1.0; stroke-linecap: butt; stroke-linejoin: miter"/>
  </pattern>
  <pattern id="h2633590f10" patternUnits="userSpaceOnUse" x="0" y="0" width="72" height="72">
   <rect x="0" y="0" width="73" height="73" fill="#277c80"/>
   <path d="M -36 36 
L 36 -36 
M -32 40 
L 40 -32 
M -28 44 
L 44 -28 
M -24 48 
L 48 -24 
M -20 52 
L 52 -20 
M -16 56 
L 56 -16 
M -12 60 
L 60 -12 
M -8 64 
L 64 -8 
M -4 68 
L 68 -4 
M 0 72 
L 72 0 
M 4 76 
L 76 4 
M 8 80 
L 80 8 
M 12 84 
L 84 12 
M 16 88 
L 88 16 
M 20 92 
L 92 20 
M 24 96 
L 96 24 
M 28 100 
L 100 28 
M 32 104 
L 104 32 
M 36 108 
L 108 36 
" style="fill: #ffffff; stroke: #ffffff; stroke-width: 1.0; stroke-linecap: butt; stroke-linejoin: miter"/>
  </pattern>
  <pattern id="h1bca09c41b" patternUnits="userSpaceOnUse" x="0" y="0" width="72" height="72">
   <rect x="0" y="0" width="73" height="73" fill="#c85e3c"/>
   <path d="M -36 36 
L 36 -36 
M -32 40 
L 40 -32 
M -28 44 
L 44 -28 
M -24 48 
L 48 -24 
M -20 52 
L 52 -20 
M -16 56 
L 56 -16 
M -12 60 
L 60 -12 
M -8 64 
L 64 -8 
M -4 68 
L 68 -4 
M 0 72 
L 72 0 
M 4 76 
L 76 4 
M 8 80 
L 80 8 
M 12 84 
L 84 12 
M 16 88 
L 88 16 
M 20 92 
L 92 20 
M 24 96 
L 96 24 
M 28 100 
L 100 28 
M 32 104 
L 104 32 
M 36 108 
L 108 36 
" style="fill: #ffffff; stroke: #ffffff; stroke-width: 1.0; stroke-linecap: butt; stroke-linejoin: miter"/>
  </pattern>
 </defs>
</svg>
